<?xml version="1.0" standalone="no"?>
<!DOCTYPE svg PUBLIC "-//W3C//DTD SVG 20010904//EN"
 "http://www.w3.org/TR/2001/REC-SVG-20010904/DTD/svg10.dtd">
<svg version="1.0" xmlns="http://www.w3.org/2000/svg"
 width="328.000000pt" height="163.000000pt" viewBox="0 0 328.000000 163.000000"
 preserveAspectRatio="xMidYMid meet">

<g transform="translate(0.000000,163.000000) scale(0.100000,-0.100000)"
fill="#000000" stroke="none">
<path d="M0 815 l0 -815 1640 0 1640 0 0 815 0 815 -1640 0 -1640 0 0 -815z
m1430 460 c124 -62 262 -172 470 -372 99 -97 113 -103 180 -84 l25 7 -29 19
c-36 24 -73 82 -82 130 l-7 38 39 -31 c58 -45 128 -62 264 -62 231 0 395 -74
456 -205 24 -51 29 -82 18 -123 -7 -23 -7 -23 -36 8 -34 38 -37 38 -238 -11
-69 -17 -161 -39 -205 -49 -44 -10 -154 -37 -245 -59 -865 -208 -834 -201
-844 -183 -22 39 -81 78 -228 153 -152 77 -238 138 -238 170 0 12 33 19 143
33 78 9 169 21 202 26 33 5 112 17 175 25 63 9 147 20 185 26 39 5 119 16 179
24 60 8 111 17 113 19 2 2 -49 68 -114 147 -126 154 -231 284 -249 307 -9 13
-18 12 -65 -5 -110 -41 -249 -58 -479 -58 -226 0 -309 13 -341 51 -12 15 -11
16 11 8 63 -23 199 -9 595 61 228 40 245 40 345 -10z m-27 -155 c20 -27 37
-51 37 -54 0 -14 -234 -31 -430 -30 -233 1 -365 15 -444 48 -50 21 -41 31 15
15 61 -16 230 -14 379 5 137 18 373 56 379 62 13 12 31 -1 64 -46z m84 -117
c14 -16 34 -40 44 -55 l19 -27 -47 -7 c-76 -12 -469 -9 -568 5 -139 20 -232
39 -264 56 -45 23 -47 36 -2 20 135 -47 385 -44 681 10 46 9 86 18 89 20 10
10 23 4 48 -22z m-701 -109 c97 -41 145 -47 334 -47 156 0 206 5 320 26 l135
26 37 -42 c21 -23 38 -47 38 -53 0 -18 -52 -24 -209 -24 -248 1 -552 45 -652
96 -27 13 -49 27 -49 29 0 7 4 6 46 -11z"/>
<path d="M2412 832 c-30 -9 -31 -24 -1 -39 30 -16 74 -16 100 -2 20 10 20 11
3 30 -17 19 -57 23 -102 11z"/>
</g>
</svg>
