<?xml version="1.0" standalone="no"?>
<!DOCTYPE svg PUBLIC "-//W3C//DTD SVG 20010904//EN"
 "http://www.w3.org/TR/2001/REC-SVG-20010904/DTD/svg10.dtd">
<svg version="1.0" xmlns="http://www.w3.org/2000/svg"
 width="1008.000000pt" height="1012.000000pt" viewBox="0 0 1008.000000 1012.000000"
 preserveAspectRatio="xMidYMid meet">

<g transform="translate(0.000000,1012.000000) scale(0.100000,-0.100000)"
fill="#000000" stroke="none">
<path d="M0 5060 l0 -5060 5040 0 5040 0 0 5060 0 5060 -5040 0 -5040 0 0
-5060z m2112 472 c105 -55 251 -170 418 -331 131 -126 141 -131 210 -112 l25
7 -29 19 c-36 24 -73 82 -82 130 l-7 38 39 -31 c58 -45 128 -62 264 -62 125 0
233 -21 307 -59 120 -62 197 -191 164 -274 -6 -16 -10 -15 -35 14 -33 37 -36
36 -231 -11 -66 -16 -178 -43 -250 -60 -71 -17 -175 -42 -230 -55 -55 -13
-158 -38 -230 -55 -233 -55 -388 -92 -485 -116 -87 -21 -96 -22 -104 -7 -23
41 -76 77 -225 152 -155 79 -241 140 -241 172 0 11 25 18 98 27 263 34 896
122 900 126 1 2 -50 68 -115 147 -128 156 -231 284 -249 308 -10 13 -16 13
-50 -1 -107 -46 -332 -72 -553 -65 -173 5 -256 21 -282 54 -12 15 -12 16 6 8
44 -18 136 -16 270 5 77 12 154 24 170 26 17 2 89 15 160 29 225 42 245 41
367 -23z m3063 -2 c93 -13 185 -59 230 -115 69 -84 99 -234 75 -376 -37 -220
-166 -329 -392 -329 -187 0 -321 68 -376 192 -23 52 -42 154 -42 224 0 123 49
256 114 311 49 41 148 83 218 92 89 12 95 12 173 1z m-735 -16 c81 -18 140
-57 163 -107 41 -85 29 -203 -25 -257 -16 -16 -50 -36 -76 -44 -26 -8 -38 -15
-27 -15 31 -1 82 -37 98 -68 8 -15 31 -88 50 -160 l35 -133 -134 0 -133 0 -10
38 c-5 20 -20 80 -32 132 -12 52 -26 101 -31 108 -7 7 -35 12 -74 12 l-64 0 0
-145 0 -145 -125 0 -125 0 0 394 0 395 43 4 c126 11 402 6 467 -9z m1575 -191
c22 -112 43 -203 46 -203 3 0 16 55 29 123 12 67 30 158 39 202 l16 80 203 3
c157 2 203 0 206 -10 3 -7 9 -157 15 -333 6 -176 14 -350 17 -387 l6 -68 -120
0 -119 0 -6 83 c-4 45 -10 174 -13 287 -4 113 -10 216 -13 228 -4 16 -25 -59
-60 -220 -29 -133 -60 -273 -68 -310 l-15 -68 -118 0 c-104 0 -119 2 -124 18
-3 9 -28 127 -56 262 -27 135 -56 270 -63 300 l-13 55 -7 -145 c-4 -80 -10
-223 -13 -317 l-7 -173 -118 0 -119 0 0 28 c0 15 7 173 15 352 8 179 15 346
15 373 l0 47 203 -2 202 -3 40 -202z m1175 182 c5 -14 60 -189 121 -388 62
-199 114 -368 117 -375 3 -10 -24 -12 -128 -10 l-133 3 -19 83 -20 83 -116 -3
-117 -3 -19 -82 -18 -83 -130 0 c-119 0 -130 1 -126 18 3 9 61 189 129 400
l123 382 163 0 163 0 10 -25z m-5127 -115 c20 -27 37 -51 37 -54 0 -14 -234
-31 -430 -30 -233 1 -366 15 -444 48 -51 21 -41 31 15 15 60 -16 228 -14 379
5 137 18 373 56 379 62 13 12 31 -1 64 -46z m111 -150 l36 -45 -28 -8 c-51
-16 -498 -11 -619 6 -141 21 -197 33 -233 52 -44 23 -45 36 -2 21 104 -37 287
-45 477 -21 117 14 297 45 304 51 8 7 30 -12 65 -56z m-722 -78 c84 -36 167
-47 338 -46 151 1 285 17 426 50 16 4 31 -6 64 -48 l42 -53 -29 -6 c-47 -11
-327 -10 -431 1 -238 25 -434 72 -457 110 -8 14 -3 13 47 -8z m1797 -608 c2
-2 0 -15 -3 -30 -7 -25 -10 -26 -52 -20 -55 7 -59 -9 -6 -31 56 -23 72 -41 72
-83 0 -57 -27 -75 -110 -75 -38 0 -72 3 -75 7 -4 4 -5 18 -1 31 5 22 9 24 55
19 66 -6 71 11 11 36 -54 23 -77 55 -66 94 10 38 22 50 57 57 30 7 108 3 118
-5z m251 -20 c0 -21 -5 -24 -35 -24 l-35 0 0 -95 c0 -69 -3 -95 -12 -96 -7 -1
-25 -2 -40 -3 l-28 -2 0 98 0 98 -35 0 c-31 0 -35 3 -35 25 0 24 2 24 83 27
119 4 137 1 137 -28z m175 26 c22 -5 45 -17 52 -26 19 -26 16 -68 -7 -89 -13
-12 -17 -21 -10 -25 14 -8 41 -98 32 -103 -4 -1 -23 -3 -42 -2 -32 0 -35 3
-48 48 -10 35 -18 47 -33 47 -16 0 -19 -7 -19 -49 l0 -48 -37 1 -38 1 -3 122
-3 122 38 4 c68 7 78 7 118 -3z m1298 -1 c96 -26 106 -188 15 -235 -50 -26
-125 -14 -160 25 -24 27 -28 40 -28 90 0 70 16 95 75 116 49 17 51 17 98 4z
m269 1 c58 -17 78 -78 38 -115 -18 -16 -19 -20 -6 -27 8 -5 18 -24 22 -43 3
-20 9 -37 13 -39 4 -3 24 46 44 109 l38 113 50 4 c28 1 53 0 55 -4 5 -8 74
-230 74 -239 0 -3 -18 -6 -40 -7 -38 -3 -41 -1 -47 28 -5 29 -9 31 -41 28 -29
-2 -37 -8 -42 -28 -6 -24 -9 -25 -90 -25 l-84 0 -11 45 c-8 34 -16 45 -30 45
-16 0 -21 -9 -25 -45 -5 -45 -6 -46 -40 -45 l-35 1 -3 121 -3 122 38 4 c72 7
88 7 125 -3z m1330 0 c55 -16 78 -51 78 -119 0 -48 -5 -62 -29 -91 -28 -33
-32 -35 -95 -35 -57 0 -69 3 -91 26 -28 28 -41 81 -31 131 9 46 28 68 73 83
47 17 49 17 95 5z m259 -58 l13 -57 10 55 11 55 68 3 67 3 2 -96 c1 -52 2
-107 2 -122 1 -24 -3 -27 -34 -27 l-35 -1 -3 70 c-2 39 -7 74 -11 78 -5 5 -14
-20 -21 -55 -17 -88 -25 -100 -63 -96 -31 3 -32 5 -48 78 -23 111 -27 114 -28
19 l-1 -86 -31 -7 c-17 -3 -35 -3 -41 0 -8 5 -3 208 7 239 1 6 28 9 63 7 l61
-4 12 -56z m405 46 c69 -33 64 -187 -7 -223 -38 -20 -96 -19 -139 3 -62 31
-77 140 -26 198 34 41 114 51 172 22z m497 -1 c2 -7 10 -45 17 -85 7 -39 16
-70 19 -66 3 3 13 40 21 82 l15 77 43 3 c23 2 42 1 42 -2 0 -10 -61 -229 -65
-236 -6 -10 -87 -11 -104 -1 -11 7 -70 194 -71 228 0 6 12 13 28 15 33 4 49 0
55 -15z m-4864 -1 c72 -38 68 -185 -6 -215 -31 -12 -148 -22 -169 -14 -11 4
-14 33 -14 124 l0 119 80 0 c51 0 91 -5 109 -14z m161 -112 l0 -125 -37 3 -38
4 -3 122 -3 122 41 0 40 0 0 -126z m820 1 l0 -126 -37 4 -38 4 -3 122 -3 121
41 0 40 0 0 -125z m234 109 c20 -19 21 -54 3 -79 -12 -15 -11 -21 5 -37 23
-23 23 -60 1 -87 -15 -17 -31 -21 -108 -23 l-90 -3 -3 123 -3 122 90 0 c68 0
93 -4 105 -16z m138 -76 l3 -93 33 -3 32 -3 0 95 0 96 40 0 40 0 0 -96 c0 -52
-4 -104 -10 -114 -19 -35 -106 -51 -167 -30 -42 15 -53 47 -53 150 l0 90 40 0
39 0 3 -92z m268 -34 l0 -125 -37 3 -38 3 -3 123 -3 122 41 0 40 0 0 -126z
m257 92 c22 -26 25 -36 21 -93 -5 -83 -23 -101 -109 -113 -35 -5 -77 -8 -94
-7 l-30 2 -3 124 -3 123 97 -4 c92 -3 97 -4 121 -32z m1107 -80 c20 -63 36
-119 36 -125 0 -6 -16 -11 -36 -11 -31 0 -37 4 -47 30 -9 25 -17 30 -43 30
-26 0 -34 -5 -42 -29 -9 -24 -15 -28 -42 -26 -17 1 -33 5 -36 8 -3 3 11 57 32
121 l37 116 53 0 53 0 35 -114z m136 35 c0 -98 5 -111 40 -111 34 0 40 17 40
118 l0 72 41 0 42 0 -5 -101 c-7 -131 -17 -144 -119 -144 -65 0 -73 2 -95 28
-22 25 -24 37 -24 123 l0 94 40 0 40 0 0 -79z m400 54 c0 -22 -4 -25 -35 -25
l-34 0 -3 -97 -3 -98 -35 0 -35 0 -5 95 -5 95 -32 3 c-27 3 -33 7 -33 28 0 24
0 24 110 24 l110 0 0 -25z m1130 0 c0 -22 -4 -25 -35 -25 l-35 0 0 -99 0 -99
-37 1 -38 2 -3 98 -3 97 -34 0 c-31 0 -35 3 -35 25 l0 25 110 0 110 0 0 -25z
m107 -97 l-2 -123 -40 0 -40 0 -3 123 -3 122 46 0 45 0 -3 -122z m484 10 c19
-62 34 -117 34 -123 0 -5 -17 -11 -38 -12 -34 -1 -38 2 -44 28 -5 26 -10 29
-44 29 -34 0 -38 -3 -41 -27 -2 -23 -8 -28 -33 -30 -55 -3 -55 -1 -19 114 18
59 36 113 39 120 3 8 24 13 58 13 l53 0 35 -112z"/>
<path d="M3072 5102 c-30 -9 -31 -24 -1 -39 30 -16 74 -16 100 -2 20 10 20 11
3 30 -17 19 -57 23 -102 11z"/>
<path d="M5045 5364 c-11 -3 -30 -7 -42 -9 -31 -7 -44 -54 -50 -185 -10 -204
26 -290 120 -290 71 0 95 14 120 67 18 41 21 67 21 173 1 107 -2 132 -21 172
-11 25 -29 51 -40 56 -24 13 -82 22 -108 16z"/>
<path d="M4202 5373 c-22 -4 -23 -8 -20 -96 l3 -92 80 2 c94 3 105 12 105 85
0 39 -5 54 -25 73 -13 14 -33 25 -43 25 -11 0 -32 2 -48 4 -16 2 -39 2 -52 -1z"/>
<path d="M6972 5208 l-40 -143 75 -3 c42 -2 77 -1 80 1 4 4 -65 278 -72 285
-1 1 -20 -62 -43 -140z"/>
<path d="M3606 4513 c-3 -4 -6 -17 -6 -30 0 -21 4 -24 28 -21 19 2 27 9 27 22
0 18 -37 40 -49 29z"/>
<path d="M4897 4503 c-4 -3 -7 -32 -7 -64 0 -47 4 -60 19 -68 32 -18 53 8 53
66 0 28 -3 56 -6 62 -8 12 -49 15 -59 4z"/>
<path d="M5165 4512 c-3 -3 -5 -16 -5 -29 0 -19 5 -23 30 -23 25 0 30 4 30 24
0 17 -7 25 -25 28 -13 3 -27 3 -30 0z"/>
<path d="M5438 4485 c-20 -66 -20 -65 1 -65 22 0 25 15 12 60 -7 23 -8 23 -13
5z"/>
<path d="M6497 4503 c-14 -13 -7 -111 8 -127 42 -42 87 53 55 115 -10 18 -50
26 -63 12z"/>
<path d="M7126 4488 c-21 -79 18 -152 59 -112 18 19 20 105 3 122 -20 20 -55
14 -62 -10z"/>
<path d="M2760 4439 l0 -70 33 3 c31 3 32 4 35 56 3 60 -8 82 -44 82 -23 0
-24 -3 -24 -71z"/>
<path d="M3977 4513 c-4 -3 -7 -15 -7 -25 0 -13 7 -18 25 -18 29 0 36 34 9 44
-19 7 -19 7 -27 -1z"/>
<path d="M3970 4396 c0 -30 13 -40 40 -31 13 4 20 15 20 31 0 20 -5 24 -30 24
-25 0 -30 -4 -30 -24z"/>
<path d="M4610 4440 l0 -70 30 0 c37 0 54 29 47 83 -6 43 -19 57 -54 57 -22 0
-23 -4 -23 -70z"/>
<path d="M5753 4465 c-14 -44 -13 -48 15 -43 17 3 18 7 8 43 l-11 39 -12 -39z"/>
<path d="M8010 4478 c0 -7 -3 -23 -6 -35 -5 -19 -2 -23 16 -23 18 0 21 4 16
23 -3 12 -6 28 -6 35 0 6 -4 12 -10 12 -5 0 -10 -6 -10 -12z"/>
</g>
</svg>
